<svg width="219" height="80" viewBox="0 0 219 80" fill="none" xmlns="http://www.w3.org/2000/svg">
<path d="M162.5 42.303C156.537 40.6118 153.062 34.3852 154.753 28.4225C156.445 22.4597 162.671 18.9847 168.634 20.6758C174.597 22.367 178.072 28.5937 176.381 34.5565C174.69 40.5192 168.463 43.9941 162.5 42.303ZM168.48 21.2177C162.816 19.6113 156.901 22.9124 155.295 28.5765C153.688 34.2405 156.989 40.1556 162.653 41.762C168.317 43.3684 174.233 40.0673 175.839 34.4032C177.446 28.7387 174.144 22.8241 168.48 21.2177Z" fill="#232323"/>
<path d="M162.957 40.6902C157.884 39.2513 154.927 33.9533 156.366 28.8799C157.805 23.8066 163.103 20.8498 168.176 22.2887C173.25 23.7276 176.206 29.0256 174.768 34.099C173.329 39.1723 168.031 42.1291 162.957 40.6902ZM168.023 22.8301C163.248 21.4759 158.262 24.2589 156.907 29.0335C155.553 33.8081 158.336 38.7946 163.111 40.1488C167.885 41.503 172.872 38.72 174.226 33.9454C175.58 29.1708 172.797 24.1843 168.023 22.8301Z" fill="#5770E5"/>
<path d="M180.237 42.8958C180.085 42.7965 179.941 42.6798 179.812 42.5407L172.394 34.5696C172.544 34.2374 172.678 33.8962 172.781 33.5354C173.911 29.5512 171.597 25.4055 167.613 24.2755C163.629 23.1455 159.483 25.4592 158.353 29.4434C157.223 33.4276 159.537 37.5733 163.521 38.7033C165.61 39.2958 167.739 38.9347 169.458 37.8893L179.694 46.3C180.528 45.6498 179.382 43.5171 180.237 42.8958Z" fill="#5770E5"/>
<path d="M179.923 44.2624C179.881 43.7949 172.497 37.9989 169.191 35.1337C167.834 35.4069 166.482 35.3264 165.132 34.888L164.99 34.8475C163.173 34.3263 161.608 33.3867 160.295 32.0297C159.764 31.312 159.234 30.5943 158.703 29.8761C158.596 29.6825 158.496 29.4872 158.402 29.2905C158.386 29.3416 158.368 29.3912 158.353 29.4428C157.223 33.4269 159.537 37.5727 163.521 38.7027C165.61 39.2952 167.739 38.934 169.459 37.8887L179.695 46.2993C180.176 45.9234 179.996 45.0512 179.923 44.2624Z" fill="#5770E5"/>
<path d="M194.559 66.4551C193.03 66.0214 191.633 65.1965 190.49 64.0319C188.756 62.2659 187.814 59.9299 187.838 57.4553C187.86 54.9805 188.846 52.6629 190.612 50.9295C192.378 49.196 194.714 48.2539 197.189 48.2771C202.294 48.3241 206.414 52.5194 206.367 57.6283C206.319 62.737 202.125 66.8543 197.016 66.8068C196.173 66.7985 195.348 66.6789 194.559 66.4551ZM199.474 49.1683C198.745 48.9615 197.977 48.8476 197.183 48.8403C194.859 48.8188 192.665 49.7032 191.006 51.3316C189.347 52.9598 188.422 55.1362 188.401 57.4612C188.379 59.7854 189.263 61.9795 190.892 63.638C192.52 65.2971 194.697 66.2217 197.021 66.2437C201.82 66.2883 205.76 62.4215 205.804 57.623C205.841 53.6185 203.153 50.2118 199.474 49.1683Z" fill="#232323"/>
<path d="M195.053 64.7233C193.821 64.3739 192.696 63.7088 191.775 62.771C190.378 61.3479 189.619 59.466 189.638 57.4724C189.656 55.4788 190.45 53.6116 191.874 52.215C193.296 50.8183 195.178 50.0592 197.172 50.0782C199.164 50.0962 201.032 50.8907 202.429 52.3134C203.825 53.7365 204.584 55.6179 204.566 57.612C204.527 61.7277 201.148 65.0444 197.032 65.0067C196.354 65 195.689 64.9037 195.053 64.7233ZM198.996 50.9027C198.408 50.7359 197.794 50.6471 197.166 50.641C195.323 50.6238 193.583 51.3254 192.268 52.6165C190.952 53.9082 190.218 55.6341 190.201 57.4774C190.166 61.2826 193.232 64.4059 197.038 64.4426C200.843 64.4779 203.968 61.4109 204.003 57.6056C204.02 55.762 203.318 54.0229 202.027 52.7071C201.176 51.8403 200.135 51.2258 198.996 50.9027Z" fill="#5770E5"/>
<path d="M202.781 57.595C202.81 54.4582 200.291 51.8918 197.155 51.8627C196.18 51.8534 195.26 52.0913 194.455 52.5163L182.864 46.4628C182.584 46.3163 182.289 46.2203 181.99 46.1543C182.112 47.0675 182.225 47.9818 182.325 48.898C182.532 48.986 182.734 49.0943 182.916 49.247L191.53 56.459C191.465 56.7931 191.426 57.1366 191.422 57.4894C191.393 60.6262 193.912 63.1927 197.048 63.2218C200.185 63.2505 202.752 60.7313 202.781 57.595Z" fill="#5770E5"/>
<path d="M193.952 55.1093C193.13 54.5997 183.683 48.8523 182.867 48.2424C182.515 48.0364 182.278 47.8861 182.2 47.8107C181.938 47.557 182.285 48.5351 182.325 48.8981C182.532 48.9861 182.734 49.0945 182.915 49.2471L191.53 56.4592C191.465 56.7932 191.425 57.1367 191.422 57.4896C191.393 60.6264 193.912 63.1928 197.048 63.2219C199.048 63.2406 200.813 62.2208 201.839 60.6678C200.831 60.9339 199.689 60.9371 198.437 60.5821C195.434 59.7298 194.302 57.6846 193.952 55.1093Z" fill="#5770E5"/>
<path d="M201.99 38.8047C196.303 37.1915 192.987 31.2517 194.601 25.5635C196.214 19.8753 202.154 16.5601 207.842 18.1732C213.53 19.7865 216.845 25.7268 215.232 31.415C213.619 37.1032 207.679 40.418 201.99 38.8047ZM207.688 18.7151C202.299 17.1865 196.671 20.3276 195.142 25.7171C193.613 31.1065 196.754 36.7347 202.144 38.2633C207.533 39.7918 213.162 36.6509 214.691 31.2614C216.219 25.872 213.078 20.2436 207.688 18.7151Z" fill="#232323"/>
<path d="M202.479 37.0809C197.742 35.7374 194.981 30.7895 196.324 26.0523C197.668 21.3146 202.616 18.5537 207.353 19.8973C212.091 21.241 214.852 26.1888 213.509 30.926C212.165 35.6637 207.217 38.4246 202.479 37.0809ZM207.2 20.4387C202.761 19.1797 198.125 21.7671 196.866 26.206C195.607 30.6449 198.194 35.2806 202.633 36.5395C207.072 37.7985 211.708 35.2113 212.967 30.7723C214.226 26.3334 211.638 21.6976 207.2 20.4387Z" fill="#5770E5"/>
<path d="M206.805 21.8283C203.127 20.785 199.299 22.9215 198.256 26.6C197.947 27.6897 197.923 28.7907 198.129 29.8299L183.017 42.7255C182.996 42.7432 182.972 42.752 182.951 42.7687C183.076 43.9856 183.205 45.2008 183.319 46.4154L201.127 34.2844C201.699 34.6581 202.336 34.9531 203.028 35.1493C206.706 36.1926 210.534 34.0563 211.577 30.3778C212.62 26.6995 210.484 22.8717 206.805 21.8283Z" fill="#5770E5"/>
<path d="M211.409 26.104C211.065 27.274 210.491 28.3043 209.659 29.1791C208.939 30.2523 207.992 31.0885 206.817 31.6883C205.69 32.3729 204.481 32.74 203.19 32.7894C201.884 33.0642 200.582 32.9905 199.284 32.5685L199.141 32.528C198.156 32.2451 183.073 43.9447 183.133 44.5324C183.197 45.1602 183.26 45.7876 183.319 46.4143L201.127 34.2833C201.699 34.657 202.336 34.952 203.028 35.1482C206.706 36.1915 210.534 34.0552 211.577 30.3766C211.992 28.9143 211.897 27.4302 211.409 26.104Z" fill="#5770E5"/>
<path d="M165.004 64.6754C163.436 64.2308 162.06 63.2951 161.058 61.9739C159.836 60.3644 159.314 58.3752 159.588 56.3728C160.155 52.2393 163.978 49.3373 168.111 49.9034C172.245 50.4691 175.147 54.2932 174.58 58.4259C174.306 60.4283 173.268 62.2042 171.658 63.4261C170.049 64.6477 168.059 65.1695 166.057 64.8949C165.698 64.8463 165.347 64.7727 165.004 64.6754ZM169 50.663C168.688 50.5744 168.366 50.5068 168.035 50.4613C164.21 49.9372 160.671 52.623 160.146 56.4488C159.892 58.3021 160.375 60.1433 161.506 61.6334C162.637 63.1235 164.279 64.0815 166.133 64.3374C167.986 64.5914 169.828 64.1084 171.317 62.9776C172.808 61.8464 173.768 60.2033 174.022 58.3503C174.501 54.8549 172.301 51.5992 169 50.663Z" fill="#5770E5"/>
<path d="M165.338 63.5082C164.021 63.1353 162.866 62.3494 162.024 61.2403C160.998 59.8887 160.56 58.2186 160.791 56.5374C161.021 54.8563 161.892 53.3651 163.244 52.3396C164.595 51.314 166.265 50.8755 167.946 51.1064C169.627 51.3376 171.118 52.208 172.144 53.5594C173.169 54.9108 173.607 56.581 173.378 58.2618C173.147 59.9434 172.276 61.4345 170.924 62.4605C169.573 63.4861 167.902 63.9246 166.221 63.6937C165.92 63.6517 165.625 63.5896 165.338 63.5082ZM168.676 51.8322C168.414 51.7578 168.145 51.7017 167.87 51.6638C166.338 51.4539 164.816 51.8531 163.584 52.7879C162.352 53.7229 161.558 55.0816 161.349 56.6134C161.139 58.1461 161.538 59.6682 162.473 60.9002C163.408 62.1318 164.766 62.9227 166.298 63.1355C167.831 63.3454 169.353 62.9462 170.585 62.0114C171.817 61.076 172.61 59.7177 172.82 58.1855C173.03 56.6532 172.631 55.1316 171.696 53.8991C170.928 52.8884 169.875 52.1724 168.676 51.8322Z" fill="#232323"/>
<path d="M179.912 50.5948C177.162 49.8149 175.56 46.9431 176.339 44.1932C177.119 41.4433 179.991 39.8406 182.741 40.6205C185.491 41.4004 187.094 44.2722 186.314 47.0221C185.534 49.772 182.662 51.3746 179.912 50.5948ZM182.587 41.1628C180.136 40.4676 177.576 41.8962 176.881 44.3474C176.186 46.7985 177.615 49.3582 180.066 50.0534C182.517 50.7487 185.077 49.3202 185.772 46.869C186.467 44.4173 185.038 41.858 182.587 41.1628Z" fill="#232323"/>
<path d="M182.363 41.9538C180.345 41.3815 178.245 42.5536 177.672 44.5714C177.443 45.381 177.498 46.2019 177.772 46.934C175.026 48.9288 170.057 52.5007 170.057 52.5007C169.828 52.669 169.546 52.825 169.238 52.9662C168.799 52.7614 168.322 52.6178 167.817 52.5484C165.112 52.1778 162.618 54.0703 162.248 56.7756C161.877 59.481 163.77 61.9742 166.475 62.3452C169.18 62.7158 171.673 60.8233 172.044 58.118C172.172 57.1854 172.026 56.2805 171.675 55.4763C171.824 55.2781 171.977 55.0948 172.131 54.9469L179.13 48.7026C179.474 48.9464 179.861 49.1401 180.29 49.2616C182.307 49.8339 184.408 48.6618 184.98 46.644C185.553 44.6258 184.381 42.5261 182.363 41.9538Z" fill="#232323"/>
<path d="M184.168 46.2875C183.168 46.8416 182.095 47.1164 180.952 47.1133C180.591 47.0614 180.231 47.0095 179.871 46.958C177.903 48.2797 168.997 55.2165 169.027 55.9963C169.208 56.8528 169.159 57.7073 168.883 58.5592L168.862 58.6308C168.538 59.7591 167.955 60.7307 167.113 61.5459C166.783 61.7898 166.453 62.0342 166.122 62.2781C166.239 62.3028 166.355 62.3283 166.475 62.3446C169.18 62.7152 171.673 60.8228 172.044 58.1174C172.172 57.1849 172.026 56.2799 171.675 55.4757C171.824 55.2776 171.977 55.0943 172.131 54.9463L179.13 48.7021C179.474 48.9458 179.861 49.1395 180.29 49.261C182.308 49.8333 184.408 48.6612 184.98 46.6434C185.08 46.2917 185.111 45.9394 185.109 45.5918C184.796 45.8238 184.482 46.0556 184.168 46.2875Z" fill="black"/>
<path d="M16.5806 59.3744C13.9776 59.3744 11.6242 58.9287 9.52046 58.0373C7.45234 57.1458 5.81211 55.8622 4.59977 54.1863C3.38743 52.5104 2.76343 50.5314 2.72777 48.2494H10.7506C10.8576 49.7826 11.3925 50.995 12.3552 51.8864C13.3536 52.7778 14.7086 53.2235 16.4201 53.2235C18.1673 53.2235 19.5401 52.8135 20.5385 51.9934C21.5369 51.1376 22.0361 50.0322 22.0361 48.6773C22.0361 47.5719 21.6974 46.6626 21.0199 45.9495C20.3424 45.2363 19.4866 44.6837 18.4526 44.2914C17.4542 43.8635 16.0635 43.4 14.2807 42.9008C11.856 42.1877 9.87703 41.4923 8.34377 40.8149C6.84617 40.1017 5.54469 39.0498 4.43931 37.6592C3.3696 36.2329 2.83474 34.3431 2.83474 31.9897C2.83474 29.779 3.38743 27.8535 4.4928 26.2133C5.59817 24.573 7.14926 23.325 9.14606 22.4693C11.1429 21.5778 13.4249 21.1321 15.9922 21.1321C19.8432 21.1321 22.9632 22.077 25.3522 23.9669C27.7769 25.821 29.1141 28.424 29.3637 31.7758H21.1269C21.0555 30.4921 20.5029 29.4402 19.4688 28.6201C18.4704 27.7643 17.1333 27.3365 15.4574 27.3365C13.9954 27.3365 12.8187 27.7109 11.9273 28.4597C11.0715 29.2085 10.6437 30.296 10.6437 31.7223C10.6437 32.7207 10.9646 33.5586 11.6064 34.2361C12.2839 34.8779 13.104 35.4128 14.0667 35.8407C15.0651 36.2329 16.4558 36.6965 18.2386 37.2313C20.6633 37.9445 22.6423 38.6576 24.1755 39.3707C25.7088 40.0839 27.0281 41.1536 28.1335 42.5799C29.2389 44.0062 29.7915 45.8782 29.7915 48.1959C29.7915 50.1927 29.2745 52.0469 28.2405 53.7584C27.2064 55.4699 25.691 56.8427 23.6942 57.8768C21.6974 58.8752 19.3262 59.3744 16.5806 59.3744ZM43.7714 21.667V59H36.2834V21.667H43.7714ZM77.1636 32.899C76.3078 31.3301 75.1311 30.1355 73.6335 29.3154C72.1359 28.4953 70.3887 28.0853 68.3919 28.0853C66.1812 28.0853 64.22 28.5845 62.5085 29.5829C60.797 30.5813 59.4598 32.0075 58.4971 33.8617C57.5343 35.7159 57.053 37.8553 57.053 40.28C57.053 42.776 57.5343 44.9511 58.4971 46.8053C59.4955 48.6594 60.8683 50.0857 62.6155 51.0841C64.3627 52.0825 66.3951 52.5817 68.7128 52.5817C71.5654 52.5817 73.901 51.8329 75.7195 50.3353C77.538 48.8021 78.7325 46.6805 79.303 43.9705H66.4664V38.2475H86.684V44.7728C86.1848 47.3758 85.1151 49.7826 83.4749 51.9934C81.8347 54.2041 79.7131 55.987 77.1101 57.3419C74.5428 58.6613 71.6546 59.3209 68.4454 59.3209C64.844 59.3209 61.5814 58.5186 58.6575 56.9141C55.7693 55.2738 53.4872 53.0096 51.8114 50.1214C50.1711 47.2331 49.351 43.9527 49.351 40.28C49.351 36.6073 50.1711 33.3269 51.8114 30.4386C53.4872 27.5147 55.7693 25.2505 58.6575 23.6459C61.5814 22.0057 64.8262 21.1856 68.3919 21.1856C72.5995 21.1856 76.2543 22.2197 79.3565 24.2878C82.4587 26.3202 84.5981 29.1906 85.7748 32.899H77.1636ZM111.479 59L103.242 44.4519H99.712V59H92.224V21.667H106.237C109.125 21.667 111.586 22.184 113.618 23.2181C115.651 24.2165 117.166 25.5893 118.165 27.3365C119.199 29.048 119.716 30.9735 119.716 33.1129C119.716 35.5733 119.003 37.8018 117.576 39.7986C116.15 41.7598 114.028 43.1147 111.211 43.8635L120.144 59H111.479ZM99.712 38.8359H105.97C108.002 38.8359 109.518 38.3545 110.516 37.3918C111.515 36.3934 112.014 35.0206 112.014 33.2734C112.014 31.5618 111.515 30.2425 110.516 29.3154C109.518 28.3527 108.002 27.8713 105.97 27.8713H99.712V38.8359ZM133.976 27.7109V37.0709H146.545V43.0078H133.976V52.9026H148.15V59H126.488V21.6135H148.15V27.7109H133.976Z" fill="black"/>
</svg>
